<?xml version="1.0" standalone="no"?>
<!DOCTYPE svg PUBLIC "-//W3C//DTD SVG 20010904//EN"
 "http://www.w3.org/TR/2001/REC-SVG-20010904/DTD/svg10.dtd">
<svg version="1.0" xmlns="http://www.w3.org/2000/svg"
 width="400.000000pt" height="300.000000pt" viewBox="0 0 400.000000 300.000000"
 preserveAspectRatio="xMidYMid meet">

<g transform="translate(0.000000,300.000000) scale(0.100000,-0.100000)"
fill="#000000" stroke="none">
<path d="M1140 1500 l0 -270 75 0 74 0 3 130 3 130 90 -111 c106 -131 137
-151 227 -147 l60 3 -95 115 c-52 64 -108 122 -123 129 -16 8 -58 17 -94 20
l-65 6 -6 80 c-6 100 -26 140 -82 166 -23 10 -48 19 -54 19 -10 0 -13 -61 -13
-270z"/>
<path d="M1730 1546 l0 -224 27 -33 c25 -29 77 -59 103 -59 7 0 10 91 10 270
l0 270 -70 0 -70 0 0 -224z"/>
<path d="M1992 1498 l3 -273 2 265 3 264 76 -114 c93 -139 117 -167 169 -191
36 -17 135 -27 135 -14 0 3 -16 30 -36 60 -32 48 -35 57 -23 72 13 16 12 17
-3 5 -15 -12 -24 -2 -88 92 l-70 106 -85 0 -85 0 2 -272z"/>
<path d="M2438 1753 c-8 -10 -18 -25 -22 -33 -4 -8 2 -4 13 10 l21 25 0 -262
c0 -174 3 -263 10 -263 26 0 78 30 103 59 l27 33 0 224 0 224 -68 0 c-53 0
-72 -4 -84 -17z"/>
<path d="M2805 1756 c-37 -16 -70 -52 -84 -89 -7 -17 -11 -112 -11 -233 l0
-204 75 0 75 0 0 270 c0 292 2 281 -55 256z"/>
<path d="M1559 1733 c-13 -16 -12 -17 4 -4 16 13 21 21 13 21 -2 0 -10 -8 -17
-17z"/>
<path d="M1504 1688 l-29 -33 33 29 c30 28 37 36 29 36 -2 0 -16 -15 -33 -32z"/>
<path d="M1439 1633 l-24 -28 28 24 c25 23 32 31 24 31 -2 0 -14 -12 -28 -27z"/>
<path d="M1374 1578 l-29 -33 33 29 c30 28 37 36 29 36 -2 0 -16 -15 -33 -32z"/>
<path d="M1314 1528 l-19 -23 23 19 c21 18 27 26 19 26 -2 0 -12 -10 -23 -22z"/>
</g>
</svg>
